<mxfile host="Electron" modified="2024-02-12T13:01:52.917Z" agent="Mozilla/5.0 (Windows NT 10.0; Win64; x64) AppleWebKit/537.36 (KHTML, like Gecko) draw.io/23.0.2 Chrome/120.0.6099.109 Electron/28.1.0 Safari/537.36" etag="Vahh7DUDX2vSPc11mBnA" version="23.0.2" type="device">
  <diagram name="Sayfa -1" id="rJlIwd8TCUFAV7Fny5Pw">
    <mxGraphModel dx="1863" dy="606" grid="1" gridSize="10" guides="1" tooltips="1" connect="1" arrows="1" fold="1" page="1" pageScale="1" pageWidth="827" pageHeight="1169" math="0" shadow="0">
      <root>
        <mxCell id="0" />
        <mxCell id="1" parent="0" />
        <mxCell id="OXQbPbZ1G9C3Crr-hBTL-1" value="HomeController" style="swimlane;fontStyle=0;childLayout=stackLayout;horizontal=1;startSize=30;horizontalStack=0;resizeParent=1;resizeParentMax=0;resizeLast=0;collapsible=1;marginBottom=0;whiteSpace=wrap;html=1;fillColor=#fa6800;fontColor=#000000;strokeColor=#C73500;" parent="1" vertex="1">
          <mxGeometry x="30" width="140" height="120" as="geometry" />
        </mxCell>
        <mxCell id="OXQbPbZ1G9C3Crr-hBTL-2" value="Item 1" style="text;strokeColor=none;fillColor=none;align=left;verticalAlign=middle;spacingLeft=4;spacingRight=4;overflow=hidden;points=[[0,0.5],[1,0.5]];portConstraint=eastwest;rotatable=0;whiteSpace=wrap;html=1;" parent="OXQbPbZ1G9C3Crr-hBTL-1" vertex="1">
          <mxGeometry y="30" width="140" height="30" as="geometry" />
        </mxCell>
        <mxCell id="OXQbPbZ1G9C3Crr-hBTL-3" value="Item 2" style="text;strokeColor=none;fillColor=none;align=left;verticalAlign=middle;spacingLeft=4;spacingRight=4;overflow=hidden;points=[[0,0.5],[1,0.5]];portConstraint=eastwest;rotatable=0;whiteSpace=wrap;html=1;" parent="OXQbPbZ1G9C3Crr-hBTL-1" vertex="1">
          <mxGeometry y="60" width="140" height="30" as="geometry" />
        </mxCell>
        <mxCell id="OXQbPbZ1G9C3Crr-hBTL-4" value="Item 3" style="text;strokeColor=none;fillColor=none;align=left;verticalAlign=middle;spacingLeft=4;spacingRight=4;overflow=hidden;points=[[0,0.5],[1,0.5]];portConstraint=eastwest;rotatable=0;whiteSpace=wrap;html=1;" parent="OXQbPbZ1G9C3Crr-hBTL-1" vertex="1">
          <mxGeometry y="90" width="140" height="30" as="geometry" />
        </mxCell>
        <mxCell id="OXQbPbZ1G9C3Crr-hBTL-33" value="Models&lt;br&gt;" style="swimlane;whiteSpace=wrap;html=1;fillColor=#6d8764;fontColor=#ffffff;strokeColor=#3A5431;" parent="1" vertex="1">
          <mxGeometry x="700" width="460" height="530" as="geometry" />
        </mxCell>
        <mxCell id="OXQbPbZ1G9C3Crr-hBTL-17" value="ReadSessionViewModel" style="swimlane;fontStyle=0;childLayout=stackLayout;horizontal=1;startSize=30;horizontalStack=0;resizeParent=1;resizeParentMax=0;resizeLast=0;collapsible=1;marginBottom=0;whiteSpace=wrap;html=1;fillColor=#6a00ff;fontColor=#ffffff;strokeColor=#3700CC;" parent="OXQbPbZ1G9C3Crr-hBTL-33" vertex="1">
          <mxGeometry x="191" y="40" width="249" height="60" as="geometry" />
        </mxCell>
        <mxCell id="OXQbPbZ1G9C3Crr-hBTL-18" value="List&amp;lt;ReadSessionView&amp;gt; Sessions" style="text;strokeColor=none;fillColor=none;align=left;verticalAlign=middle;spacingLeft=4;spacingRight=4;overflow=hidden;points=[[0,0.5],[1,0.5]];portConstraint=eastwest;rotatable=0;whiteSpace=wrap;html=1;" parent="OXQbPbZ1G9C3Crr-hBTL-17" vertex="1">
          <mxGeometry y="30" width="249" height="30" as="geometry" />
        </mxCell>
        <mxCell id="OXQbPbZ1G9C3Crr-hBTL-9" value="ReadSession" style="swimlane;fontStyle=0;childLayout=stackLayout;horizontal=1;startSize=30;horizontalStack=0;resizeParent=1;resizeParentMax=0;resizeLast=0;collapsible=1;marginBottom=0;whiteSpace=wrap;html=1;fillColor=#6a00ff;fontColor=#ffffff;strokeColor=#3700CC;" parent="OXQbPbZ1G9C3Crr-hBTL-33" vertex="1">
          <mxGeometry x="10" y="160" width="149" height="270" as="geometry" />
        </mxCell>
        <mxCell id="OXQbPbZ1G9C3Crr-hBTL-10" value="ID" style="text;strokeColor=none;fillColor=none;align=left;verticalAlign=middle;spacingLeft=4;spacingRight=4;overflow=hidden;points=[[0,0.5],[1,0.5]];portConstraint=eastwest;rotatable=0;whiteSpace=wrap;html=1;" parent="OXQbPbZ1G9C3Crr-hBTL-9" vertex="1">
          <mxGeometry y="30" width="149" height="30" as="geometry" />
        </mxCell>
        <mxCell id="OXQbPbZ1G9C3Crr-hBTL-11" value="BookName" style="text;strokeColor=none;fillColor=none;align=left;verticalAlign=middle;spacingLeft=4;spacingRight=4;overflow=hidden;points=[[0,0.5],[1,0.5]];portConstraint=eastwest;rotatable=0;whiteSpace=wrap;html=1;" parent="OXQbPbZ1G9C3Crr-hBTL-9" vertex="1">
          <mxGeometry y="60" width="149" height="30" as="geometry" />
        </mxCell>
        <mxCell id="OXQbPbZ1G9C3Crr-hBTL-12" value="StartPage" style="text;strokeColor=none;fillColor=none;align=left;verticalAlign=middle;spacingLeft=4;spacingRight=4;overflow=hidden;points=[[0,0.5],[1,0.5]];portConstraint=eastwest;rotatable=0;whiteSpace=wrap;html=1;" parent="OXQbPbZ1G9C3Crr-hBTL-9" vertex="1">
          <mxGeometry y="90" width="149" height="30" as="geometry" />
        </mxCell>
        <mxCell id="OXQbPbZ1G9C3Crr-hBTL-15" value="EndPage" style="text;strokeColor=none;fillColor=none;align=left;verticalAlign=middle;spacingLeft=4;spacingRight=4;overflow=hidden;points=[[0,0.5],[1,0.5]];portConstraint=eastwest;rotatable=0;whiteSpace=wrap;html=1;" parent="OXQbPbZ1G9C3Crr-hBTL-9" vertex="1">
          <mxGeometry y="120" width="149" height="30" as="geometry" />
        </mxCell>
        <mxCell id="OXQbPbZ1G9C3Crr-hBTL-44" value="Date" style="text;strokeColor=none;fillColor=none;align=left;verticalAlign=middle;spacingLeft=4;spacingRight=4;overflow=hidden;points=[[0,0.5],[1,0.5]];portConstraint=eastwest;rotatable=0;whiteSpace=wrap;html=1;" parent="OXQbPbZ1G9C3Crr-hBTL-9" vertex="1">
          <mxGeometry y="150" width="149" height="30" as="geometry" />
        </mxCell>
        <mxCell id="OXQbPbZ1G9C3Crr-hBTL-45" value="Duration" style="text;strokeColor=none;fillColor=none;align=left;verticalAlign=middle;spacingLeft=4;spacingRight=4;overflow=hidden;points=[[0,0.5],[1,0.5]];portConstraint=eastwest;rotatable=0;whiteSpace=wrap;html=1;" parent="OXQbPbZ1G9C3Crr-hBTL-9" vertex="1">
          <mxGeometry y="180" width="149" height="30" as="geometry" />
        </mxCell>
        <mxCell id="OXQbPbZ1G9C3Crr-hBTL-46" value="Comments" style="text;strokeColor=none;fillColor=none;align=left;verticalAlign=middle;spacingLeft=4;spacingRight=4;overflow=hidden;points=[[0,0.5],[1,0.5]];portConstraint=eastwest;rotatable=0;whiteSpace=wrap;html=1;" parent="OXQbPbZ1G9C3Crr-hBTL-9" vertex="1">
          <mxGeometry y="210" width="149" height="30" as="geometry" />
        </mxCell>
        <mxCell id="OXQbPbZ1G9C3Crr-hBTL-47" value="TotalPages" style="text;strokeColor=none;fillColor=none;align=left;verticalAlign=middle;spacingLeft=4;spacingRight=4;overflow=hidden;points=[[0,0.5],[1,0.5]];portConstraint=eastwest;rotatable=0;whiteSpace=wrap;html=1;" parent="OXQbPbZ1G9C3Crr-hBTL-9" vertex="1">
          <mxGeometry y="240" width="149" height="30" as="geometry" />
        </mxCell>
        <mxCell id="OXQbPbZ1G9C3Crr-hBTL-21" value="ReadContext" style="swimlane;fontStyle=0;childLayout=stackLayout;horizontal=1;startSize=30;horizontalStack=0;resizeParent=1;resizeParentMax=0;resizeLast=0;collapsible=1;marginBottom=0;whiteSpace=wrap;html=1;fillColor=#d80073;fontColor=#ffffff;strokeColor=#A50040;" parent="OXQbPbZ1G9C3Crr-hBTL-33" vertex="1">
          <mxGeometry x="10" y="40" width="140" height="60" as="geometry" />
        </mxCell>
        <mxCell id="OXQbPbZ1G9C3Crr-hBTL-13" value="ReadSessionView" style="swimlane;fontStyle=0;childLayout=stackLayout;horizontal=1;startSize=30;horizontalStack=0;resizeParent=1;resizeParentMax=0;resizeLast=0;collapsible=1;marginBottom=0;whiteSpace=wrap;html=1;fillColor=#6a00ff;fontColor=#ffffff;strokeColor=#3700CC;" parent="OXQbPbZ1G9C3Crr-hBTL-33" vertex="1">
          <mxGeometry x="210" y="160" width="140" height="270" as="geometry" />
        </mxCell>
        <mxCell id="OXQbPbZ1G9C3Crr-hBTL-57" value="ID" style="text;strokeColor=none;fillColor=none;align=left;verticalAlign=middle;spacingLeft=4;spacingRight=4;overflow=hidden;points=[[0,0.5],[1,0.5]];portConstraint=eastwest;rotatable=0;whiteSpace=wrap;html=1;" parent="OXQbPbZ1G9C3Crr-hBTL-13" vertex="1">
          <mxGeometry y="30" width="140" height="30" as="geometry" />
        </mxCell>
        <mxCell id="OXQbPbZ1G9C3Crr-hBTL-72" value="BookName" style="text;strokeColor=none;fillColor=none;align=left;verticalAlign=middle;spacingLeft=4;spacingRight=4;overflow=hidden;points=[[0,0.5],[1,0.5]];portConstraint=eastwest;rotatable=0;whiteSpace=wrap;html=1;" parent="OXQbPbZ1G9C3Crr-hBTL-13" vertex="1">
          <mxGeometry y="60" width="140" height="30" as="geometry" />
        </mxCell>
        <mxCell id="OXQbPbZ1G9C3Crr-hBTL-61" value="StartPage" style="text;strokeColor=none;fillColor=none;align=left;verticalAlign=middle;spacingLeft=4;spacingRight=4;overflow=hidden;points=[[0,0.5],[1,0.5]];portConstraint=eastwest;rotatable=0;whiteSpace=wrap;html=1;" parent="OXQbPbZ1G9C3Crr-hBTL-13" vertex="1">
          <mxGeometry y="90" width="140" height="30" as="geometry" />
        </mxCell>
        <mxCell id="OXQbPbZ1G9C3Crr-hBTL-60" value="EndPage" style="text;strokeColor=none;fillColor=none;align=left;verticalAlign=middle;spacingLeft=4;spacingRight=4;overflow=hidden;points=[[0,0.5],[1,0.5]];portConstraint=eastwest;rotatable=0;whiteSpace=wrap;html=1;" parent="OXQbPbZ1G9C3Crr-hBTL-13" vertex="1">
          <mxGeometry y="120" width="140" height="30" as="geometry" />
        </mxCell>
        <mxCell id="OXQbPbZ1G9C3Crr-hBTL-62" value="Date" style="text;strokeColor=none;fillColor=none;align=left;verticalAlign=middle;spacingLeft=4;spacingRight=4;overflow=hidden;points=[[0,0.5],[1,0.5]];portConstraint=eastwest;rotatable=0;whiteSpace=wrap;html=1;" parent="OXQbPbZ1G9C3Crr-hBTL-13" vertex="1">
          <mxGeometry y="150" width="140" height="30" as="geometry" />
        </mxCell>
        <mxCell id="OXQbPbZ1G9C3Crr-hBTL-63" value="Duration" style="text;strokeColor=none;fillColor=none;align=left;verticalAlign=middle;spacingLeft=4;spacingRight=4;overflow=hidden;points=[[0,0.5],[1,0.5]];portConstraint=eastwest;rotatable=0;whiteSpace=wrap;html=1;" parent="OXQbPbZ1G9C3Crr-hBTL-13" vertex="1">
          <mxGeometry y="180" width="140" height="30" as="geometry" />
        </mxCell>
        <mxCell id="OXQbPbZ1G9C3Crr-hBTL-64" value="Comments" style="text;strokeColor=none;fillColor=none;align=left;verticalAlign=middle;spacingLeft=4;spacingRight=4;overflow=hidden;points=[[0,0.5],[1,0.5]];portConstraint=eastwest;rotatable=0;whiteSpace=wrap;html=1;" parent="OXQbPbZ1G9C3Crr-hBTL-13" vertex="1">
          <mxGeometry y="210" width="140" height="30" as="geometry" />
        </mxCell>
        <mxCell id="OXQbPbZ1G9C3Crr-hBTL-65" value="TotalPages" style="text;strokeColor=none;fillColor=none;align=left;verticalAlign=middle;spacingLeft=4;spacingRight=4;overflow=hidden;points=[[0,0.5],[1,0.5]];portConstraint=eastwest;rotatable=0;whiteSpace=wrap;html=1;" parent="OXQbPbZ1G9C3Crr-hBTL-13" vertex="1">
          <mxGeometry y="240" width="140" height="30" as="geometry" />
        </mxCell>
        <mxCell id="OXQbPbZ1G9C3Crr-hBTL-5" value="ReadService" style="swimlane;fontStyle=0;childLayout=stackLayout;horizontal=1;startSize=30;horizontalStack=0;resizeParent=1;resizeParentMax=0;resizeLast=0;collapsible=1;marginBottom=0;whiteSpace=wrap;html=1;fillColor=#008a00;fontColor=#ffffff;strokeColor=#005700;" parent="1" vertex="1">
          <mxGeometry x="344" width="140" height="120" as="geometry" />
        </mxCell>
        <mxCell id="OXQbPbZ1G9C3Crr-hBTL-6" value="Item 1" style="text;strokeColor=none;fillColor=none;align=left;verticalAlign=middle;spacingLeft=4;spacingRight=4;overflow=hidden;points=[[0,0.5],[1,0.5]];portConstraint=eastwest;rotatable=0;whiteSpace=wrap;html=1;" parent="OXQbPbZ1G9C3Crr-hBTL-5" vertex="1">
          <mxGeometry y="30" width="140" height="30" as="geometry" />
        </mxCell>
        <mxCell id="OXQbPbZ1G9C3Crr-hBTL-7" value="Item 2" style="text;strokeColor=none;fillColor=none;align=left;verticalAlign=middle;spacingLeft=4;spacingRight=4;overflow=hidden;points=[[0,0.5],[1,0.5]];portConstraint=eastwest;rotatable=0;whiteSpace=wrap;html=1;" parent="OXQbPbZ1G9C3Crr-hBTL-5" vertex="1">
          <mxGeometry y="60" width="140" height="30" as="geometry" />
        </mxCell>
        <mxCell id="OXQbPbZ1G9C3Crr-hBTL-8" value="Item 3" style="text;strokeColor=none;fillColor=none;align=left;verticalAlign=middle;spacingLeft=4;spacingRight=4;overflow=hidden;points=[[0,0.5],[1,0.5]];portConstraint=eastwest;rotatable=0;whiteSpace=wrap;html=1;" parent="OXQbPbZ1G9C3Crr-hBTL-5" vertex="1">
          <mxGeometry y="90" width="140" height="30" as="geometry" />
        </mxCell>
        <mxCell id="OXQbPbZ1G9C3Crr-hBTL-37" value="Validations" style="swimlane;whiteSpace=wrap;html=1;fillColor=#76608a;strokeColor=#432D57;fontColor=#ffffff;" parent="1" vertex="1">
          <mxGeometry x="-40" y="190" width="180" height="250" as="geometry" />
        </mxCell>
        <mxCell id="OXQbPbZ1G9C3Crr-hBTL-29" value="ValidateEndPage" style="swimlane;fontStyle=0;childLayout=stackLayout;horizontal=1;startSize=30;horizontalStack=0;resizeParent=1;resizeParentMax=0;resizeLast=0;collapsible=1;marginBottom=0;whiteSpace=wrap;html=1;fillColor=#76608a;fontColor=#ffffff;strokeColor=#432D57;" parent="OXQbPbZ1G9C3Crr-hBTL-37" vertex="1">
          <mxGeometry x="15" y="30" width="150" height="60" as="geometry" />
        </mxCell>
        <mxCell id="OXQbPbZ1G9C3Crr-hBTL-25" value="DateValidationAttribute" style="swimlane;fontStyle=0;childLayout=stackLayout;horizontal=1;startSize=30;horizontalStack=0;resizeParent=1;resizeParentMax=0;resizeLast=0;collapsible=1;marginBottom=0;whiteSpace=wrap;html=1;fillColor=#76608a;strokeColor=#432D57;fontColor=#ffffff;" parent="OXQbPbZ1G9C3Crr-hBTL-37" vertex="1">
          <mxGeometry x="15" y="170" width="150" height="60" as="geometry" />
        </mxCell>
        <mxCell id="OXQbPbZ1G9C3Crr-hBTL-68" style="edgeStyle=orthogonalEdgeStyle;rounded=0;orthogonalLoop=1;jettySize=auto;html=1;entryX=1;entryY=0.169;entryDx=0;entryDy=0;entryPerimeter=0;" parent="1" source="OXQbPbZ1G9C3Crr-hBTL-5" target="OXQbPbZ1G9C3Crr-hBTL-1" edge="1">
          <mxGeometry relative="1" as="geometry" />
        </mxCell>
        <mxCell id="OXQbPbZ1G9C3Crr-hBTL-69" value="Lives in" style="edgeLabel;html=1;align=center;verticalAlign=middle;resizable=0;points=[];" parent="OXQbPbZ1G9C3Crr-hBTL-68" vertex="1" connectable="0">
          <mxGeometry x="0.2866" y="1" relative="1" as="geometry">
            <mxPoint as="offset" />
          </mxGeometry>
        </mxCell>
        <mxCell id="OXQbPbZ1G9C3Crr-hBTL-70" style="edgeStyle=orthogonalEdgeStyle;rounded=0;orthogonalLoop=1;jettySize=auto;html=1;" parent="1" source="OXQbPbZ1G9C3Crr-hBTL-21" target="OXQbPbZ1G9C3Crr-hBTL-5" edge="1">
          <mxGeometry relative="1" as="geometry" />
        </mxCell>
        <mxCell id="OXQbPbZ1G9C3Crr-hBTL-71" value="Lives in" style="edgeLabel;html=1;align=center;verticalAlign=middle;resizable=0;points=[];" parent="OXQbPbZ1G9C3Crr-hBTL-70" vertex="1" connectable="0">
          <mxGeometry x="0.2953" y="-3" relative="1" as="geometry">
            <mxPoint as="offset" />
          </mxGeometry>
        </mxCell>
        <mxCell id="OXQbPbZ1G9C3Crr-hBTL-74" style="edgeStyle=orthogonalEdgeStyle;rounded=0;orthogonalLoop=1;jettySize=auto;html=1;" parent="1" source="OXQbPbZ1G9C3Crr-hBTL-29" target="OXQbPbZ1G9C3Crr-hBTL-15" edge="1">
          <mxGeometry relative="1" as="geometry" />
        </mxCell>
        <mxCell id="OXQbPbZ1G9C3Crr-hBTL-75" style="edgeStyle=orthogonalEdgeStyle;rounded=0;orthogonalLoop=1;jettySize=auto;html=1;" parent="1" source="OXQbPbZ1G9C3Crr-hBTL-25" target="OXQbPbZ1G9C3Crr-hBTL-44" edge="1">
          <mxGeometry relative="1" as="geometry" />
        </mxCell>
        <mxCell id="-WIBgC6Hb8SbdM8LeU3A-6" style="edgeStyle=orthogonalEdgeStyle;rounded=0;orthogonalLoop=1;jettySize=auto;html=1;" edge="1" parent="1" source="-WIBgC6Hb8SbdM8LeU3A-1" target="OXQbPbZ1G9C3Crr-hBTL-13">
          <mxGeometry relative="1" as="geometry">
            <Array as="points">
              <mxPoint x="980" y="676" />
            </Array>
          </mxGeometry>
        </mxCell>
        <mxCell id="-WIBgC6Hb8SbdM8LeU3A-1" value="TransformModel" style="swimlane;fontStyle=0;childLayout=stackLayout;horizontal=1;startSize=26;fillColor=#a20025;horizontalStack=0;resizeParent=1;resizeParentMax=0;resizeLast=0;collapsible=1;marginBottom=0;whiteSpace=wrap;html=1;fontColor=#ffffff;strokeColor=#6F0000;" vertex="1" parent="1">
          <mxGeometry x="820" y="650" width="140" height="52" as="geometry" />
        </mxCell>
        <mxCell id="-WIBgC6Hb8SbdM8LeU3A-5" style="edgeStyle=orthogonalEdgeStyle;rounded=0;orthogonalLoop=1;jettySize=auto;html=1;entryX=0;entryY=0.25;entryDx=0;entryDy=0;" edge="1" parent="1" source="OXQbPbZ1G9C3Crr-hBTL-9" target="-WIBgC6Hb8SbdM8LeU3A-1">
          <mxGeometry relative="1" as="geometry" />
        </mxCell>
      </root>
    </mxGraphModel>
  </diagram>
</mxfile>
